<svg xmlns="http://www.w3.org/2000/svg" xmlns:xlink="http://www.w3.org/1999/xlink" width="580" height="305"><style type="text/css">text{font-family:&apos;MyriadPro-Regular&apos;;font-size:14pt}line{stroke:#000;stroke-width:2}</style><defs><marker id="Triangle" markerHeight="4" markerWidth="4" orient="auto" refX="1" refY="5" viewBox="0 0 10 10"><path fill="red" d="M 0 0 L 10 5 L 0 10 z"/></marker></defs><g id="element"><rect width="200" height="220" x="55" y="65" fill="#add8e6" stroke="#000" stroke-width="2"/><text x="38" y="71" text-anchor="end">0</text><line x1="40" x2="55" y1="65" y2="65"/><line x1="40" x2="55" y1="85" y2="85"/><line x1="40" x2="55" y1="105" y2="105"/><line x1="40" x2="55" y1="125" y2="125"/><line x1="40" x2="55" y1="145" y2="145"/><line x1="40" x2="55" y1="165" y2="165"/><line x1="40" x2="55" y1="185" y2="185"/><line x1="40" x2="55" y1="205" y2="205"/><line x1="40" x2="55" y1="225" y2="225"/><line x1="40" x2="55" y1="245" y2="245"/><line x1="40" x2="55" y1="265" y2="265"/><text x="38" y="291" text-anchor="end">55</text><line x1="40" x2="55" y1="285" y2="285"/><text x="55" y="48" text-anchor="middle">0</text><line x1="55" x2="55" y1="50" y2="65"/><line x1="75" x2="75" y1="50" y2="65"/><line x1="95" x2="95" y1="50" y2="65"/><line x1="115" x2="115" y1="50" y2="65"/><line x1="135" x2="135" y1="50" y2="65"/><line x1="155" x2="155" y1="50" y2="65"/><line x1="175" x2="175" y1="50" y2="65"/><line x1="195" x2="195" y1="50" y2="65"/><line x1="215" x2="215" y1="50" y2="65"/><line x1="235" x2="235" y1="50" y2="65"/><text x="255" y="48" text-anchor="middle">50</text><line x1="255" x2="255" y1="50" y2="65"/><text x="52" y="161" fill="red" text-anchor="end">left</text><text x="52" y="181" fill="red" text-anchor="end">right</text><text fill="red" transform="rotate(-90) translate(-63,169)">top</text><text fill="red" transform="rotate(-90) translate(-63,191)">bottom</text></g><rect width="140" height="160" x="75" y="85" fill="#d3d3d3" stroke="#000" stroke-dasharray="3 3" stroke-width="2"/><text x="255" y="305" text-anchor="end">#one’s block box</text><line x1="55" x2="65" y1="155" y2="155" marker-end="url(#Triangle)" style="stroke:red;stroke-width:3"/><line x1="55" x2="205" y1="175" y2="175" marker-end="url(#Triangle)" style="stroke:red;stroke-width:3"/><line x1="165" x2="165" y1="65" y2="75" marker-end="url(#Triangle)" style="stroke:red;stroke-width:3"/><line x1="185" x2="185" y1="65" y2="235" marker-end="url(#Triangle)" style="stroke:red;stroke-width:3"/><use transform="translate(300,0)" xlink:href="#element"/><rect width="200" height="160" x="375" y="85" fill="#d3d3d3" stroke="#000" stroke-dasharray="3 3" stroke-width="2"/><text x="555" y="305" text-anchor="end">#two’s block box</text><line x1="355" x2="365" y1="155" y2="155" marker-end="url(#Triangle)" style="stroke:red;stroke-width:3"/><line x1="355" x2="565" y1="175" y2="175" marker-end="url(#Triangle)" style="stroke:red;stroke-width:3"/><line x1="465" x2="465" y1="65" y2="75" marker-end="url(#Triangle)" style="stroke:red;stroke-width:3"/><line x1="485" x2="485" y1="65" y2="235" marker-end="url(#Triangle)" style="stroke:red;stroke-width:3"/></svg>