<svg xmlns="http://www.w3.org/2000/svg" xmlns:xlink="http://www.w3.org/1999/xlink" id="Layer_1" width="655" height="260" x="0" style="enable-background:new" y="0" version="1.1" viewBox="0 0 655 260" xml:space="preserve"><style type="text/css">.st0{fill:url(#SVGID_7_);stroke:#010101;stroke-miterlimit:10}.st3{font-family:&apos;MyriadPro-Regular&apos;}.st4{fill:url(#SVGID_1_)}.st5{fill:url(#SVGID_2_)}.st6{fill:url(#SVGID_3_)}.st7{fill:url(#SVGID_4_)}.st8{fill:url(#SVGID_5_)}.st9{fill:url(#SVGID_6_)}.st10{fill:#010101;stroke:#fff;stroke-miterlimit:10}.st11{fill:#fff}.st13{font-size:14pt}</style><g><linearGradient id="SVGID_1_" x1="531.627" x2="531.627" y1="172.188" y2="22.442" gradientUnits="userSpaceOnUse"><stop offset="0" style="stop-color:#f27baa"/><stop offset=".126" style="stop-color:#f386ab"/><stop offset=".72" style="stop-color:#f9b5ae"/><stop offset="1" style="stop-color:#fcc8ad"/></linearGradient><path d="M569.745,136.78c0,4.381-2.912,7.618-4.195,11.572c-1.33,4.096,2.175,10.669-0.308,14.079 c-2.506,3.444-6.25,7.084-9.695,9.59c-3.41,2.482-9.815-0.584-13.913,0.746c-3.952,1.283-7.312,3.079-11.692,3.079 c-4.382,0-9.53,3.715-13.484,2.431c-4.097-1.33-4.759-9.207-8.169-11.688c-3.445-2.507-8.323-2.766-10.829-6.211 c-2.481-3.41-3.202-7.474-4.532-11.571c-1.283-3.953-0.933-7.646-0.933-12.027s1.55-7.457,2.834-11.41 c1.33-4.097-1.74-10.153,0.741-13.563c2.507-3.445,7.704-4.488,11.148-6.994c3.409-2.482,7.803-1.548,11.9-2.878 c3.952-1.283,6.942-8.501,11.323-8.501s7.977,5.346,11.93,6.629c4.098,1.331,9.957-0.581,13.367,1.901 c3.444,2.507,3.001,8.994,5.508,12.438c2.482,3.411,8.858,4.962,10.188,9.059C572.219,127.413,569.745,132.399,569.745,136.78z" class="st4"/><linearGradient id="SVGID_2_" x1="602.611" x2="602.611" y1="172.189" y2="22.442" gradientUnits="userSpaceOnUse"><stop offset="0" style="stop-color:#f27baa"/><stop offset=".126" style="stop-color:#f386ab"/><stop offset=".72" style="stop-color:#f9b5ae"/><stop offset="1" style="stop-color:#fcc8ad"/></linearGradient><path d="M611.758,42.998c4.604,4.368,14.63,4.304,14.785,10.183c0.153,5.88-6.06,31.253-10.427,35.857 c-4.368,4.604-8.965-13.581-14.845-13.426c-5.879,0.154-16.466,4.22-21.069-0.148c-4.603-4.368,2.7-15.252,2.545-21.132 c-0.153-5.879-2.553-11.181,1.815-15.785c4.368-4.603,9.558-11.277,15.437-11.432S607.154,38.63,611.758,42.998z" class="st5"/><linearGradient id="SVGID_3_" x1="566.462" x2="566.462" y1="172.191" y2="22.442" gradientUnits="userSpaceOnUse"><stop offset="0" style="stop-color:#f27baa"/><stop offset=".126" style="stop-color:#f386ab"/><stop offset=".72" style="stop-color:#f9b5ae"/><stop offset="1" style="stop-color:#fcc8ad"/></linearGradient><circle cx="566.462" cy="43.108" r="5.103" class="st6"/><linearGradient id="SVGID_4_" x1="515.826" x2="515.826" y1="172.187" y2="22.444" gradientUnits="userSpaceOnUse"><stop offset="0" style="stop-color:#f27baa"/><stop offset=".126" style="stop-color:#f386ab"/><stop offset=".72" style="stop-color:#f9b5ae"/><stop offset="1" style="stop-color:#fcc8ad"/></linearGradient><ellipse cx="515.827" cy="90.613" class="st7" rx="5.102" ry="3.954"/><linearGradient id="SVGID_5_" x1="574.861" x2="574.861" y1="172.19" y2="22.439" gradientUnits="userSpaceOnUse"><stop offset="0" style="stop-color:#f27baa"/><stop offset=".126" style="stop-color:#f386ab"/><stop offset=".72" style="stop-color:#f9b5ae"/><stop offset="1" style="stop-color:#fcc8ad"/></linearGradient><circle cx="574.861" cy="111.731" r="3.518" class="st8"/><linearGradient id="SVGID_6_" x1="569.314" x2="569.314" y1="172.19" y2="22.442" gradientUnits="userSpaceOnUse"><stop offset="0" style="stop-color:#f27baa"/><stop offset=".126" style="stop-color:#f386ab"/><stop offset=".72" style="stop-color:#f9b5ae"/><stop offset="1" style="stop-color:#fcc8ad"/></linearGradient><circle cx="569.315" cy="59.511" r="2.05" class="st9"/></g><g><linearGradient id="SVGID_7_" x1="603" x2="792" y1="50.5" y2="50.5" gradientTransform="matrix(0 -1 1 0 64.5 803.5)" gradientUnits="userSpaceOnUse"><stop offset="0" style="stop-color:#f27baa"/><stop offset=".126" style="stop-color:#f386ab"/><stop offset=".72" style="stop-color:#f9b5ae"/><stop offset="1" style="stop-color:#fcc8ad"/></linearGradient><rect width="189" height="189" x="20.5" y="11.5" class="st0"/></g><g><g><rect width="190" height="190" x="246.5" y="11.5" class="st10"/></g><g><path d="M361.499,136.78c0,4.381-2.911,7.618-4.195,11.572c-1.33,4.096,2.175,10.669-0.308,14.079 c-2.506,3.444-6.25,7.084-9.694,9.59c-3.41,2.482-9.816-0.584-13.913,0.746c-3.953,1.283-7.312,3.079-11.693,3.079 c-4.382,0-9.529,3.715-13.483,2.431c-4.097-1.33-4.76-9.207-8.17-11.688c-3.444-2.507-8.322-2.766-10.829-6.211 c-2.481-3.41-3.201-7.474-4.532-11.571c-1.282-3.953-0.933-7.646-0.933-12.027s1.55-7.457,2.834-11.41 c1.33-4.097-1.74-10.153,0.742-13.563c2.506-3.445,7.703-4.488,11.147-6.994c3.41-2.482,7.804-1.547,11.9-2.877 c3.954-1.283,6.942-8.501,11.323-8.501s7.977,5.346,11.931,6.629c4.097,1.331,9.957-0.581,13.367,1.901 c3.444,2.507,3,8.994,5.508,12.438c2.481,3.411,8.858,4.962,10.188,9.059C363.973,127.413,361.499,132.399,361.499,136.78z" class="st11"/><path d="M403.512,42.998c4.604,4.368,14.63,4.304,14.786,10.183c0.153,5.88-6.061,31.253-10.428,35.856 c-4.368,4.604-8.965-13.58-14.844-13.425c-5.879,0.154-16.466,4.219-21.07-0.148c-4.603-4.368,2.7-15.252,2.546-21.132 s-2.553-11.181,1.814-15.785c4.368-4.603,9.559-11.277,15.438-11.432C397.632,26.961,398.908,38.63,403.512,42.998z" class="st11"/><circle cx="358.216" cy="43.108" r="5.102" class="st11"/><ellipse cx="307.582" cy="90.613" class="st11" rx="5.102" ry="3.954"/><circle cx="366.616" cy="111.731" r="3.518" class="st11"/><circle cx="361.069" cy="59.511" r="2.051" class="st11"/></g></g><text class="st3 st13" transform="matrix(1 0 0 1 76.397 230.9009)">object</text><text class="st3 st13" transform="matrix(1 0 0 1 283.7041 230.9009)">luminance mask</text><text class="st3 st13" transform="matrix(1 0 0 1 491.9502 230.9009)">masked object</text></svg>