<svg xmlns="http://www.w3.org/2000/svg" width="480" height="360" viewBox="0 0 480 360"><defs><marker id="Triangle" markerHeight="6" markerWidth="6" orient="auto" refX="10" refY="5" viewBox="0 0 10 10"><path d="M 0 0 L 10 5 L 0 10 z"/></marker><marker id="Triangle2" markerHeight="10" markerWidth="10" orient="auto" refX="5" refY="5" viewBox="0 0 10 10"><path d="M 0 0 L 10 5 L 0 10 z"/></marker></defs><line x1="160" x2="320" y1="220" y2="220" stroke="#000" stroke-width="1.5" marker-end="url(#Triangle2)"/><line x1="160" x2="60" y1="220" y2="310" stroke="#000" stroke-width="1.5" marker-end="url(#Triangle2)"/><line x1="160" x2="160" y1="220" y2="60" stroke="#000" stroke-width="1.5" marker-end="url(#Triangle2)"/><line x1="160" x2="280" y1="220" y2="285" stroke="#000" stroke-dasharray="10 10" stroke-width=".5" marker-end="url(#Triangle2)"/><text x="335" y="230" font-family="sans-serif" font-size="20">X</text><text x="155" y="45" font-family="sans-serif" font-size="20">Y</text><text x="50" y="340" font-family="sans-serif" font-size="20">Z</text><line x1="160" x2="280" y1="220" y2="155" stroke="#000" stroke-dasharray="2 2" stroke-width="1.5"/><line x1="240" x2="265" y1="40" y2="40" stroke="#000" stroke-dasharray="2 2" stroke-width="1.5"/><text x="275" y="45" font-family="sans-serif" font-size="20">feDistantLight source</text><circle cx="280" cy="155" r="3"/><path fill="none" stroke="#000" stroke-dasharray="8 3 2 3 2 3" stroke-width="1.5" marker-end="url(#Triangle)" d="M300,220 C300,240 244,267.5 244,267.5 L243.85,267.6"/><line x1="240" x2="265" y1="70" y2="70" stroke="#000" stroke-dasharray="13 3 2 3 2 3" stroke-width="1.5"/><text x="275" y="75" font-family="sans-serif" font-size="20">Azimuth</text><path fill="none" stroke="#000" stroke-dasharray="10 3" stroke-width="1.5" marker-end="url(#Triangle)" d="M232,261 C232,261 232,210 220,187.5"/><line x1="240" x2="265" y1="100" y2="100" stroke="#000" stroke-dasharray="10 3" stroke-width="1.5"/><text x="275" y="105" font-family="sans-serif" font-size="20">Elevation</text></svg>