<svg xmlns="http://www.w3.org/2000/svg" width="700" height="570"><style>.boundary{fill-opacity:0;stroke:#ccc;stroke-width:2;stroke-dasharray:5,3}.label{font-family:Verdana;font-size:25px;fill:#000;stroke:#000}.crosshairs{stroke:navy;stroke-width:2}.placed{fill:#9370db}</style><text id="label" x="96" y="36" class="label">containing block</text><line x1="132" x2="150" y1="45" y2="86" class="label"/><rect width="502" height="502" x="99" y="59" class="boundary"/><g transform="translate(550, 160)"><polygon points="-270 -20 30 -20 30 80 -270 80" class="placed" transform="translate(0, 0)"/><line x1="-5" x2="5" y1="0" y2="0" class="crosshairs"/><line x1="0" x2="0" y1="-5" y2="5" class="crosshairs"/></g><g transform="translate(600, 560)"><polygon points="-150 -50 0 -50 0 0 -150 0" class="placed" transform="translate(0, 0)"/><line x1="-5" x2="5" y1="0" y2="0" class="crosshairs"/><line x1="0" x2="0" y1="-5" y2="5" class="crosshairs"/></g><g transform="translate(350, 560)"><polygon points="-50 -300 50 -300 50 0 -50 0" class="placed" transform="translate(0, 0)"/><line x1="-5" x2="5" y1="0" y2="0" class="crosshairs"/><line x1="0" x2="0" y1="-5" y2="5" class="crosshairs"/></g><g transform="translate(100, 560)"><polygon points="0 -450 150 -450 150 0 0 0" class="placed" transform="translate(0, 0)"/><line x1="-5" x2="5" y1="0" y2="0" class="crosshairs"/><line x1="0" x2="0" y1="-5" y2="5" class="crosshairs"/></g></svg>